<?xml version="1.0" encoding="iso-8859-1"?>
<!-- Uploaded to: SVG Repo, www.svgrepo.com, Generator: SVG Repo Mixer Tools -->
<svg fill="#000000" height="800px" width="800px" version="1.1" id="Layer_1" xmlns="http://www.w3.org/2000/svg" xmlns:xlink="http://www.w3.org/1999/xlink" 
	 viewBox="0 0 512 512" xml:space="preserve">
<g>
	<g>
		<path d="M449.362,32.681h-18.519c-4.513,0-8.17,3.657-8.17,8.17s3.657,8.17,8.17,8.17h10.349V495.66
			c-50.588,0-319.875,0-370.383-0.001V49.021h34.86v8.17c0,13.515,10.996,24.511,24.511,24.511
			c13.515,0,24.511-10.996,24.511-24.511v-8.17h34.86v8.17c0,13.515,10.996,24.511,24.511,24.511
			c13.515,0,24.511-10.996,24.511-24.511v-8.17h34.86v8.17c0,13.515,10.996,24.511,24.511,24.511s24.511-10.996,24.511-24.511v-8.17
			h34.86v8.17c0,13.515,10.996,24.511,24.511,24.511s24.511-10.996,24.511-24.511V24.511C406.332,10.996,395.336,0,381.821,0
			s-24.511,10.996-24.511,24.511v8.17h-34.86v-8.17C322.451,10.996,311.455,0,297.94,0S273.43,10.996,273.43,24.511v8.17h-34.86
			v-8.17C238.57,10.996,227.574,0,214.06,0c-13.515,0-24.511,10.996-24.511,24.511v8.17h-34.86v-8.17
			C154.689,10.996,143.693,0,130.179,0c-13.515,0-24.511,10.996-24.511,24.511v8.17h-43.03c-4.513,0-8.17,3.657-8.17,8.17v462.978
			c0,2.167,0.861,4.244,2.392,5.778c2.393,2.392,3.724,2.392,10.121,2.392L449.362,512c4.513,0,8.17-3.657,8.17-8.17V40.851
			C457.532,36.338,453.875,32.681,449.362,32.681z M373.651,24.511c0-4.506,3.665-8.17,8.17-8.17c4.506,0,8.17,3.665,8.17,8.17
			v32.681c0,4.506-3.665,8.17-8.17,8.17c-4.506,0-8.17-3.665-8.17-8.17V24.511z M289.77,24.511c0-4.506,3.665-8.17,8.17-8.17
			c4.506,0,8.17,3.665,8.17,8.17v32.681c0,4.506-3.665,8.17-8.17,8.17c-4.506,0-8.17-3.665-8.17-8.17V24.511z M205.889,24.511
			c0-4.506,3.665-8.17,8.17-8.17s8.17,3.665,8.17,8.17v32.681c0,4.506-3.665,8.17-8.17,8.17s-8.17-3.665-8.17-8.17V24.511z
			 M122.009,24.511c0-4.506,3.665-8.17,8.17-8.17c4.506,0,8.17,3.665,8.17,8.17v32.681c0,4.506-3.665,8.17-8.17,8.17
			c-4.506,0-8.17-3.665-8.17-8.17V24.511z"/>
	</g>
</g>
<g>
	<g>
		<path d="M362.757,302.298H149.243c-4.513,0-8.17,3.657-8.17,8.17s3.657,8.17,8.17,8.17h213.515c4.513,0,8.17-3.657,8.17-8.17
			S367.271,302.298,362.757,302.298z"/>
	</g>
</g>
<g>
	<g>
		<path d="M362.757,258.723H149.243c-4.513,0-8.17,3.657-8.17,8.17s3.657,8.17,8.17,8.17h213.515c4.513,0,8.17-3.657,8.17-8.17
			S367.271,258.723,362.757,258.723z"/>
	</g>
</g>
<g>
	<g>
		<path d="M362.757,215.149H149.243c-4.513,0-8.17,3.657-8.17,8.17s3.657,8.17,8.17,8.17h213.515c4.513,0,8.17-3.657,8.17-8.17
			S367.271,215.149,362.757,215.149z"/>
	</g>
</g>
<g>
	<g>
		<path d="M362.757,345.872H149.243c-4.513,0-8.17,3.657-8.17,8.17s3.657,8.17,8.17,8.17h213.515c4.513,0,8.17-3.657,8.17-8.17
			S367.271,345.872,362.757,345.872z"/>
	</g>
</g>
<g>
	<g>
		<path d="M281.055,389.447H149.243c-4.513,0-8.17,3.657-8.17,8.17c0,4.513,3.657,8.17,8.17,8.17h131.813
			c4.513,0,8.17-3.657,8.17-8.17C289.225,393.104,285.569,389.447,281.055,389.447z"/>
	</g>
</g>
<g>
	<g>
		<path d="M416.681,108.936H95.297c-4.512,0-8.17,3.657-8.17,8.17c0,4.513,3.657,8.17,8.17,8.17h321.383
			c4.513,0,8.17-3.657,8.17-8.17C424.851,112.593,421.194,108.936,416.681,108.936z"/>
	</g>
</g>
</svg>